<?xml version="1.0" encoding="UTF-8"?>
<svg xmlns="http://www.w3.org/2000/svg" xmlns:xlink="http://www.w3.org/1999/xlink" width="1.5em" height="1.5em" viewBox="0 0 384 384" version="1.1">
<g id="surface1">
<path style=" stroke:none;fill-rule:nonzero;fill:rgb(100%,70.980392%,29.019608%);fill-opacity:1;" d="M 384 192 C 384 298.039062 298.039062 384 192 384 C 85.960938 384 0 298.039062 0 192 C 0 85.960938 85.960938 0 192 0 C 298.039062 0 384 85.960938 384 192 Z M 384 192 "/>
<path style=" stroke:none;fill-rule:nonzero;fill:rgb(97.647059%,53.333333%,5.098039%);fill-opacity:1;" d="M 255.871094 373.105469 C 314.605469 352.390625 360.238281 303.921875 377.019531 243.445312 L 220.792969 87.21875 C 220.792969 87.21875 154.257812 142.941406 156.988281 158.234375 L 187.511719 188.390625 L 177.292969 294.523438 Z M 255.871094 373.105469 "/>
<path style=" stroke:none;fill-rule:nonzero;fill:rgb(97.254902%,100%,98.431373%);fill-opacity:1;" d="M 220.792969 87.21875 L 220.792969 294.523438 L 177.292969 294.523438 L 177.292969 140.730469 L 156.988281 158.234375 L 128.585938 125.289062 L 170.121094 89.476562 L 172.738281 87.21875 Z M 220.792969 87.21875 "/>
<path style=" stroke:none;fill-rule:nonzero;fill:rgb(84.705882%,84.705882%,84.705882%);fill-opacity:1;" d="M 192 87.21875 L 220.792969 87.21875 L 220.792969 294.523438 L 192 294.523438 Z M 192 87.21875 "/>
</g>
</svg>
